# Blender v2.93.5 OBJ File: 'MuzzleFlash.blend'
# www.blender.org
mtllib Muzzle_Cone.mtl
o MuzzleCone_Circle
v 0.000000 1.013279 0.264099
v -0.197681 0.993809 0.264099
v -0.387765 0.936148 0.264099
v -0.562948 0.842511 0.264099
v -0.716496 0.716496 0.264099
v -0.842511 0.562948 0.264099
v -0.936148 0.387765 0.264099
v -0.993809 0.197681 0.264099
v -1.013279 -0.000000 0.264099
v -0.993809 -0.197681 0.264099
v -0.936148 -0.387765 0.264098
v -0.842511 -0.562948 0.264098
v -0.716496 -0.716496 0.264098
v -0.562948 -0.842511 0.264098
v -0.387765 -0.936148 0.264098
v -0.197681 -0.993809 0.264098
v 0.000000 -1.013279 0.264098
v 0.197681 -0.993809 0.264098
v 0.387765 -0.936148 0.264098
v 0.562948 -0.842511 0.264098
v 0.716496 -0.716496 0.264098
v 0.842511 -0.562948 0.264098
v 0.936148 -0.387765 0.264098
v 0.993809 -0.197681 0.264099
v 1.013279 0.000000 0.264099
v 0.993809 0.197681 0.264099
v 0.936148 0.387765 0.264099
v 0.842511 0.562947 0.264099
v 0.716497 0.716496 0.264099
v 0.562948 0.842511 0.264099
v 0.387765 0.936148 0.264099
v 0.197681 0.993809 0.264099
v 0.000000 0.047235 0.001564
v -0.009215 0.046327 0.001564
v -0.018076 0.043639 0.001564
v -0.026242 0.039275 0.001564
v -0.033400 0.033400 0.001564
v -0.039274 0.026242 0.001564
v -0.043639 0.018076 0.001564
v -0.046327 0.009215 0.001564
v -0.047235 -0.000000 0.001564
v -0.046327 -0.009215 0.001564
v -0.043639 -0.018076 0.001564
v -0.039274 -0.026242 0.001564
v -0.033400 -0.033400 0.001564
v -0.026242 -0.039274 0.001564
v -0.018076 -0.043639 0.001564
v -0.009215 -0.046327 0.001564
v 0.000000 -0.047235 0.001564
v 0.009215 -0.046327 0.001564
v 0.018076 -0.043639 0.001564
v 0.026242 -0.039274 0.001564
v 0.033400 -0.033400 0.001564
v 0.039275 -0.026242 0.001564
v 0.043639 -0.018076 0.001564
v 0.046327 -0.009215 0.001564
v 0.047235 0.000000 0.001564
v 0.046327 0.009215 0.001564
v 0.043639 0.018076 0.001564
v 0.039275 0.026242 0.001564
v 0.033400 0.033400 0.001564
v 0.026242 0.039275 0.001564
v 0.018076 0.043639 0.001564
v 0.009215 0.046327 0.001564
v 0.489894 -0.202921 0.105670
v 0.520068 -0.103448 0.105670
v -0.520068 -0.103448 0.105670
v -0.489894 -0.202921 0.105670
v 0.530257 0.000000 0.105670
v -0.440893 -0.294595 0.105670
v 0.520068 0.103448 0.105670
v -0.374948 -0.374948 0.105670
v 0.489894 0.202921 0.105670
v -0.294595 -0.440893 0.105670
v 0.440893 0.294595 0.105670
v -0.202921 -0.489894 0.105670
v 0.000000 0.530257 0.105670
v -0.103448 0.520068 0.105670
v 0.374948 0.374948 0.105670
v -0.103448 -0.520068 0.105670
v -0.202921 0.489894 0.105670
v 0.294595 0.440893 0.105670
v 0.000000 -0.530257 0.105670
v -0.294595 0.440893 0.105670
v 0.202921 0.489894 0.105670
v 0.103448 -0.520068 0.105670
v -0.374948 0.374948 0.105670
v 0.103448 0.520068 0.105670
v 0.202921 -0.489894 0.105670
v -0.440893 0.294595 0.105670
v 0.294595 -0.440893 0.105670
v -0.489894 0.202921 0.105670
v 0.374948 -0.374948 0.105670
v -0.520068 0.103448 0.105670
v 0.440893 -0.294595 0.105670
v -0.530257 -0.000000 0.105670
v 0.000000 1.010121 0.273727
v -0.197065 0.990712 0.273727
v -0.386557 0.933230 0.273727
v -0.561193 0.839885 0.273727
v -0.714263 0.714263 0.273727
v -0.839885 0.561193 0.273727
v -0.933230 0.386557 0.273727
v -0.990712 0.197065 0.273727
v -1.010121 -0.000000 0.273727
v -0.990712 -0.197065 0.273727
v -0.933230 -0.386557 0.273727
v -0.839885 -0.561193 0.273727
v -0.714263 -0.714263 0.273727
v -0.561193 -0.839885 0.273727
v -0.386557 -0.933230 0.273727
v -0.197065 -0.990712 0.273727
v 0.000000 -1.010121 0.273727
v 0.197065 -0.990712 0.273727
v 0.386557 -0.933230 0.273727
v 0.561193 -0.839885 0.273727
v 0.714263 -0.714263 0.273727
v 0.839885 -0.561193 0.273727
v 0.933230 -0.386557 0.273727
v 0.990712 -0.197065 0.273727
v 1.010121 0.000000 0.273727
v 0.990712 0.197065 0.273727
v 0.933230 0.386557 0.273727
v 0.839885 0.561193 0.273727
v 0.714263 0.714263 0.273727
v 0.561193 0.839885 0.273727
v 0.386557 0.933230 0.273727
v 0.197065 0.990712 0.273727
v 0.000000 0.045100 0.011469
v -0.008799 0.044234 0.011469
v -0.017259 0.041667 0.011469
v -0.025056 0.037499 0.011469
v -0.031891 0.031891 0.011469
v -0.037499 0.025056 0.011469
v -0.041667 0.017259 0.011469
v -0.044234 0.008799 0.011469
v -0.045100 -0.000000 0.011469
v -0.044234 -0.008799 0.011469
v -0.041667 -0.017259 0.011469
v -0.037499 -0.025056 0.011469
v -0.031891 -0.031891 0.011469
v -0.025056 -0.037499 0.011469
v -0.017259 -0.041667 0.011469
v -0.008799 -0.044234 0.011469
v 0.000000 -0.045100 0.011469
v 0.008799 -0.044234 0.011469
v 0.017259 -0.041667 0.011469
v 0.025056 -0.037499 0.011469
v 0.031891 -0.031891 0.011469
v 0.037499 -0.025056 0.011469
v 0.041667 -0.017259 0.011469
v 0.044234 -0.008799 0.011469
v 0.045100 0.000000 0.011469
v 0.044234 0.008799 0.011469
v 0.041667 0.017259 0.011469
v 0.037499 0.025056 0.011469
v 0.031891 0.031891 0.011469
v 0.025056 0.037499 0.011469
v 0.017259 0.041667 0.011469
v 0.008799 0.044234 0.011469
v 0.487417 -0.201895 0.115442
v 0.517439 -0.102925 0.115442
v -0.517439 -0.102925 0.115442
v -0.487417 -0.201895 0.115442
v 0.527576 0.000000 0.115442
v -0.438664 -0.293106 0.115442
v 0.517439 0.102925 0.115442
v -0.373053 -0.373053 0.115442
v 0.487417 0.201895 0.115442
v -0.293106 -0.438664 0.115442
v 0.438664 0.293106 0.115442
v -0.201895 -0.487417 0.115442
v 0.000000 0.527576 0.115442
v -0.102925 0.517439 0.115442
v 0.373053 0.373053 0.115442
v -0.102925 -0.517439 0.115442
v -0.201895 0.487417 0.115442
v 0.293106 0.438664 0.115442
v 0.000000 -0.527576 0.115442
v -0.293106 0.438664 0.115442
v 0.201895 0.487417 0.115442
v 0.102925 -0.517439 0.115442
v -0.373053 0.373053 0.115442
v 0.102925 0.517439 0.115442
v 0.201895 -0.487417 0.115442
v -0.438664 0.293106 0.115442
v 0.293106 -0.438664 0.115442
v -0.487417 0.201895 0.115442
v 0.373053 -0.373053 0.115442
v -0.517439 0.102925 0.115442
v 0.438664 -0.293106 0.115442
v -0.527576 -0.000000 0.115442
vt 0.531250 0.500000
vt 0.562500 0.500000
vt 0.562500 0.000000
vt 0.531250 0.000000
vt 0.937500 0.500000
vt 0.968750 0.500000
vt 0.968750 0.000000
vt 0.937500 0.000000
vt 0.500000 0.500000
vt 0.500000 0.000000
vt 0.906250 0.500000
vt 0.906250 0.000000
vt 0.468750 0.500000
vt 0.468750 0.000000
vt 0.875000 0.500000
vt 0.875000 0.000000
vt 0.437500 0.500000
vt 0.437500 0.000000
vt 0.843750 0.500000
vt 0.843750 0.000000
vt 0.406250 0.500000
vt 0.406250 0.000000
vt 0.812500 0.500000
vt 0.812500 0.000000
vt 0.218750 0.500000
vt 0.250000 0.500000
vt 0.250000 0.000000
vt 0.218750 0.000000
vt 0.375000 0.500000
vt 0.375000 0.000000
vt 0.781250 0.500000
vt 0.781250 0.000000
vt 0.187500 0.500000
vt 0.187500 -0.000000
vt 0.343750 0.500000
vt 0.343750 0.000000
vt 0.750000 0.500000
vt 0.750000 0.000000
vt 0.156250 0.500000
vt 0.156250 -0.000000
vt 0.312500 0.500000
vt 0.312500 0.000000
vt 0.718750 0.500000
vt 0.718750 0.000000
vt 0.125000 0.500000
vt 0.125000 -0.000000
vt 0.281250 0.500000
vt 0.281250 0.000000
vt 0.687500 0.500000
vt 0.687500 0.000000
vt 0.093750 0.500000
vt 0.093750 -0.000000
vt 0.656250 0.500000
vt 0.656250 0.000000
vt 0.062500 0.500000
vt 0.062500 -0.000000
vt 0.625000 0.500000
vt 0.625000 0.000000
vt 0.031250 0.500000
vt 0.031250 -0.000000
vt 0.593750 0.500000
vt 0.593750 0.000000
vt 0.000000 0.500000
vt 0.000000 -0.000000
vt 1.000000 0.500000
vt 1.000000 0.000000
vt 0.968750 1.000000
vt 1.000000 1.000000
vt 0.562500 1.000000
vt 0.593750 1.000000
vt -0.000000 1.000000
vt 0.031250 1.000000
vt 0.625000 1.000000
vt 0.062500 1.000000
vt 0.656250 1.000000
vt 0.093750 1.000000
vt 0.687500 1.000000
vt 0.250000 1.000000
vt 0.281250 1.000000
vt 0.125000 1.000000
vt 0.718750 1.000000
vt 0.312500 1.000000
vt 0.156250 1.000000
vt 0.749999 1.000000
vt 0.343750 1.000000
vt 0.187500 1.000000
vt 0.781250 1.000000
vt 0.375000 1.000000
vt 0.218750 1.000000
vt 0.812500 1.000000
vt 0.406250 1.000000
vt 0.843750 1.000000
vt 0.437500 1.000000
vt 0.875000 1.000000
vt 0.468750 1.000000
vt 0.906250 1.000000
vt 0.500000 1.000000
vt 0.937500 1.000000
vt 0.531250 1.000000
vt 0.531250 0.500000
vt 0.531250 0.000000
vt 0.562500 0.000000
vt 0.562500 0.500000
vt 0.937500 0.500000
vt 0.937500 0.000000
vt 0.968750 0.000000
vt 0.968750 0.500000
vt 0.500000 0.500000
vt 0.500000 0.000000
vt 0.906250 0.500000
vt 0.906250 0.000000
vt 0.468750 0.500000
vt 0.468750 0.000000
vt 0.875000 0.500000
vt 0.875000 0.000000
vt 0.437500 0.500000
vt 0.437500 0.000000
vt 0.843750 0.500000
vt 0.843750 0.000000
vt 0.406250 0.500000
vt 0.406250 0.000000
vt 0.812500 0.500000
vt 0.812500 0.000000
vt 0.218750 0.500000
vt 0.218750 0.000000
vt 0.250000 0.000000
vt 0.250000 0.500000
vt 0.375000 0.500000
vt 0.375000 0.000000
vt 0.781250 0.500000
vt 0.781250 0.000000
vt 0.187500 0.500000
vt 0.187500 -0.000000
vt 0.343750 0.500000
vt 0.343750 0.000000
vt 0.750000 0.500000
vt 0.750000 0.000000
vt 0.156250 0.500000
vt 0.156250 -0.000000
vt 0.312500 0.500000
vt 0.312500 0.000000
vt 0.718750 0.500000
vt 0.718750 0.000000
vt 0.125000 0.500000
vt 0.125000 -0.000000
vt 0.281250 0.500000
vt 0.281250 0.000000
vt 0.687500 0.500000
vt 0.687500 0.000000
vt 0.093750 0.500000
vt 0.093750 -0.000000
vt 0.656250 0.500000
vt 0.656250 0.000000
vt 0.062500 0.500000
vt 0.062500 -0.000000
vt 0.625000 0.500000
vt 0.625000 0.000000
vt 0.031250 0.500000
vt 0.031250 -0.000000
vt 0.593750 0.500000
vt 0.593750 0.000000
vt 0.000000 0.500000
vt 0.000000 -0.000000
vt 1.000000 0.000000
vt 1.000000 0.500000
vt 0.968750 1.000000
vt 1.000000 1.000000
vt 0.562500 1.000000
vt 0.593750 1.000000
vt -0.000000 1.000000
vt 0.031250 1.000000
vt 0.625000 1.000000
vt 0.062500 1.000000
vt 0.656250 1.000000
vt 0.093750 1.000000
vt 0.687500 1.000000
vt 0.250000 1.000000
vt 0.281250 1.000000
vt 0.125000 1.000000
vt 0.718750 1.000000
vt 0.312500 1.000000
vt 0.156250 1.000000
vt 0.749999 1.000000
vt 0.343750 1.000000
vt 0.187500 1.000000
vt 0.781250 1.000000
vt 0.375000 1.000000
vt 0.218750 1.000000
vt 0.812500 1.000000
vt 0.406250 1.000000
vt 0.843750 1.000000
vt 0.437500 1.000000
vt 0.875000 1.000000
vt 0.468750 1.000000
vt 0.906250 1.000000
vt 0.500000 1.000000
vt 0.937500 1.000000
vt 0.531250 1.000000
vn 0.2595 -0.0516 -0.9644
vn 0.2444 -0.1012 -0.9644
vn -0.4708 0.1950 -0.8604
vn -0.4998 0.0994 -0.8604
vn -0.2444 -0.1012 -0.9644
vn -0.2595 -0.0516 -0.9644
vn 0.4998 0.0994 -0.8604
vn 0.4708 0.1950 -0.8604
vn 0.2646 0.0000 -0.9644
vn -0.5096 0.0000 -0.8604
vn -0.2200 -0.1470 -0.9644
vn 0.4237 0.2831 -0.8604
vn 0.2595 0.0516 -0.9644
vn -0.4998 -0.0994 -0.8604
vn -0.1871 -0.1871 -0.9644
vn 0.3603 0.3603 -0.8604
vn 0.2444 0.1012 -0.9644
vn -0.4708 -0.1950 -0.8604
vn -0.1470 -0.2200 -0.9644
vn 0.2831 0.4237 -0.8604
vn 0.2200 0.1470 -0.9644
vn -0.4237 -0.2831 -0.8604
vn -0.1012 -0.2444 -0.9644
vn 0.1950 0.4708 -0.8604
vn -0.0516 0.2595 -0.9644
vn 0.0000 0.2646 -0.9644
vn 0.0000 -0.5096 -0.8604
vn 0.0994 -0.4998 -0.8604
vn 0.1871 0.1871 -0.9644
vn -0.3603 -0.3603 -0.8604
vn -0.0516 -0.2595 -0.9644
vn 0.0994 0.4998 -0.8604
vn -0.1012 0.2444 -0.9644
vn 0.1950 -0.4708 -0.8604
vn 0.1470 0.2200 -0.9644
vn -0.2831 -0.4237 -0.8604
vn 0.0000 -0.2646 -0.9644
vn 0.0000 0.5096 -0.8604
vn -0.1470 0.2200 -0.9644
vn 0.2831 -0.4237 -0.8604
vn 0.1012 0.2444 -0.9644
vn -0.1950 -0.4708 -0.8604
vn 0.0516 -0.2595 -0.9644
vn -0.0994 0.4998 -0.8604
vn -0.1871 0.1871 -0.9644
vn 0.3603 -0.3603 -0.8604
vn 0.0516 0.2595 -0.9644
vn -0.0994 -0.4998 -0.8604
vn 0.1012 -0.2444 -0.9644
vn -0.1950 0.4708 -0.8604
vn -0.2200 0.1470 -0.9644
vn 0.4237 -0.2831 -0.8604
vn 0.1470 -0.2200 -0.9644
vn -0.2831 0.4237 -0.8604
vn -0.2444 0.1012 -0.9644
vn 0.4708 -0.1950 -0.8604
vn 0.1871 -0.1871 -0.9644
vn -0.3603 0.3603 -0.8604
vn -0.2595 0.0516 -0.9644
vn 0.4998 -0.0994 -0.8604
vn 0.2200 -0.1470 -0.9644
vn -0.4237 0.2831 -0.8604
vn -0.2646 0.0000 -0.9644
vn 0.5096 0.0000 -0.8604
vn -0.8833 -0.1757 -0.4346
vn -0.9006 0.0000 -0.4346
vn 0.8320 -0.3446 -0.4346
vn 0.7488 -0.5003 -0.4346
vn -0.8833 0.1757 -0.4346
vn 0.6368 -0.6368 -0.4346
vn -0.8320 0.3446 -0.4346
vn 0.5003 -0.7488 -0.4346
vn -0.7488 0.5003 -0.4346
vn 0.3446 -0.8320 -0.4346
vn 0.0000 0.9006 -0.4346
vn 0.1757 0.8833 -0.4346
vn -0.6368 0.6368 -0.4346
vn 0.1757 -0.8833 -0.4346
vn 0.3446 0.8320 -0.4346
vn -0.5004 0.7488 -0.4346
vn 0.0000 -0.9006 -0.4346
vn 0.5003 0.7488 -0.4346
vn -0.3446 0.8320 -0.4346
vn -0.1757 -0.8833 -0.4346
vn 0.6368 0.6368 -0.4346
vn -0.1757 0.8833 -0.4346
vn -0.3446 -0.8320 -0.4346
vn 0.7488 0.5003 -0.4346
vn -0.5003 -0.7488 -0.4346
vn 0.8320 0.3446 -0.4346
vn -0.6368 -0.6368 -0.4346
vn 0.8833 0.1757 -0.4346
vn -0.7488 -0.5003 -0.4346
vn 0.9006 0.0000 -0.4346
vn -0.8320 -0.3446 -0.4346
vn 0.8833 -0.1757 -0.4346
vn -0.2595 0.0516 0.9644
vn -0.8103 0.1612 0.5633
vn -0.7633 0.3162 0.5633
vn -0.2444 0.1012 0.9644
vn 0.2444 0.1012 0.9644
vn 0.7633 0.3162 0.5633
vn 0.8103 0.1612 0.5633
vn 0.2595 0.0516 0.9644
vn -0.2646 0.0000 0.9644
vn -0.8262 0.0000 0.5633
vn 0.2200 0.1470 0.9644
vn 0.6870 0.4590 0.5633
vn -0.2595 -0.0516 0.9644
vn -0.8103 -0.1612 0.5633
vn 0.1871 0.1871 0.9644
vn 0.5842 0.5842 0.5633
vn -0.2444 -0.1012 0.9644
vn -0.7633 -0.3162 0.5633
vn 0.1470 0.2200 0.9644
vn 0.4590 0.6870 0.5633
vn -0.2200 -0.1470 0.9644
vn -0.6869 -0.4590 0.5633
vn 0.1012 0.2444 0.9644
vn 0.3162 0.7633 0.5633
vn 0.0516 -0.2595 0.9644
vn 0.1612 -0.8103 0.5633
vn 0.0000 -0.8262 0.5633
vn 0.0000 -0.2646 0.9644
vn -0.1871 -0.1871 0.9644
vn -0.5842 -0.5842 0.5633
vn 0.0516 0.2595 0.9644
vn 0.1612 0.8103 0.5633
vn 0.1012 -0.2444 0.9644
vn 0.3162 -0.7633 0.5633
vn -0.1470 -0.2200 0.9644
vn -0.4590 -0.6869 0.5633
vn 0.0000 0.2646 0.9644
vn 0.0000 0.8262 0.5633
vn 0.1470 -0.2200 0.9644
vn 0.4590 -0.6870 0.5633
vn -0.1012 -0.2444 0.9644
vn -0.3162 -0.7633 0.5633
vn -0.0516 0.2595 0.9644
vn -0.1612 0.8103 0.5633
vn 0.1871 -0.1871 0.9644
vn 0.5842 -0.5842 0.5633
vn -0.0516 -0.2595 0.9644
vn -0.1612 -0.8103 0.5633
vn -0.1012 0.2444 0.9644
vn -0.3162 0.7633 0.5633
vn 0.2200 -0.1470 0.9644
vn 0.6870 -0.4590 0.5633
vn -0.1470 0.2200 0.9644
vn -0.4590 0.6870 0.5633
vn 0.2444 -0.1012 0.9644
vn 0.7633 -0.3162 0.5633
vn -0.1871 0.1871 0.9644
vn -0.5842 0.5842 0.5633
vn 0.2595 -0.0516 0.9644
vn 0.8103 -0.1612 0.5633
vn -0.2200 0.1470 0.9644
vn -0.6869 0.4590 0.5633
vn 0.2646 0.0000 0.9644
vn 0.8262 0.0000 0.5633
vn -0.4760 -0.0947 0.8743
vn -0.4853 0.0000 0.8743
vn 0.4483 -0.1857 0.8743
vn 0.4035 -0.2696 0.8743
vn -0.4760 0.0947 0.8743
vn 0.3432 -0.3432 0.8743
vn -0.4483 0.1857 0.8743
vn 0.2696 -0.4035 0.8743
vn -0.4035 0.2696 0.8743
vn 0.1857 -0.4483 0.8743
vn 0.0000 0.4853 0.8743
vn 0.0947 0.4760 0.8743
vn -0.3432 0.3432 0.8743
vn 0.0947 -0.4760 0.8743
vn 0.1857 0.4483 0.8743
vn -0.2696 0.4035 0.8743
vn 0.0000 -0.4853 0.8743
vn 0.2696 0.4035 0.8743
vn -0.1857 0.4483 0.8743
vn -0.0947 -0.4760 0.8743
vn 0.3432 0.3432 0.8743
vn -0.0947 0.4760 0.8743
vn -0.1857 -0.4483 0.8743
vn 0.4035 0.2696 0.8743
vn -0.2696 -0.4035 0.8743
vn 0.4483 0.1857 0.8743
vn -0.3432 -0.3432 0.8743
vn 0.4760 0.0947 0.8743
vn -0.4035 -0.2696 0.8743
vn 0.4853 0.0000 0.8743
vn -0.4483 -0.1857 0.8743
vn 0.4760 -0.0947 0.8743
usemtl None
s 1
f 66/1/1 65/2/2 55/3/3 56/4/4
f 68/5/5 67/6/6 42/7/7 43/8/8
f 69/9/9 66/1/1 56/4/4 57/10/10
f 70/11/11 68/5/5 43/8/8 44/12/12
f 71/13/13 69/9/9 57/10/10 58/14/14
f 72/15/15 70/11/11 44/12/12 45/16/16
f 73/17/17 71/13/13 58/14/14 59/18/18
f 74/19/19 72/15/15 45/16/16 46/20/20
f 75/21/21 73/17/17 59/18/18 60/22/22
f 76/23/23 74/19/19 46/20/20 47/24/24
f 78/25/25 77/26/26 33/27/27 34/28/28
f 79/29/29 75/21/21 60/22/22 61/30/30
f 80/31/31 76/23/23 47/24/24 48/32/32
f 81/33/33 78/25/25 34/28/28 35/34/34
f 82/35/35 79/29/29 61/30/30 62/36/36
f 83/37/37 80/31/31 48/32/32 49/38/38
f 84/39/39 81/33/33 35/34/34 36/40/40
f 85/41/41 82/35/35 62/36/36 63/42/42
f 86/43/43 83/37/37 49/38/38 50/44/44
f 87/45/45 84/39/39 36/40/40 37/46/46
f 88/47/47 85/41/41 63/42/42 64/48/48
f 89/49/49 86/43/43 50/44/44 51/50/50
f 90/51/51 87/45/45 37/46/46 38/52/52
f 77/26/26 88/47/47 64/48/48 33/27/27
f 91/53/53 89/49/49 51/50/50 52/54/54
f 92/55/55 90/51/51 38/52/52 39/56/56
f 93/57/57 91/53/53 52/54/54 53/58/58
f 94/59/59 92/55/55 39/56/56 40/60/60
f 95/61/61 93/57/57 53/58/58 54/62/62
f 96/63/63 94/59/59 40/60/60 41/64/64
f 65/2/2 95/61/61 54/62/62 55/3/3
f 67/6/6 96/65/63 41/66/64 42/7/7
f 10/67/65 9/68/66 96/65/63 67/6/6
f 23/69/67 22/70/68 95/61/61 65/2/2
f 9/71/66 8/72/69 94/59/59 96/63/63
f 22/70/68 21/73/70 93/57/57 95/61/61
f 8/72/69 7/74/71 92/55/55 94/59/59
f 21/73/70 20/75/72 91/53/53 93/57/57
f 7/74/71 6/76/73 90/51/51 92/55/55
f 20/75/72 19/77/74 89/49/49 91/53/53
f 1/78/75 32/79/76 88/47/47 77/26/26
f 6/76/73 5/80/77 87/45/45 90/51/51
f 19/77/74 18/81/78 86/43/43 89/49/49
f 32/79/76 31/82/79 85/41/41 88/47/47
f 5/80/77 4/83/80 84/39/39 87/45/45
f 18/81/78 17/84/81 83/37/37 86/43/43
f 31/82/79 30/85/82 82/35/35 85/41/41
f 4/83/80 3/86/83 81/33/33 84/39/39
f 17/84/81 16/87/84 80/31/31 83/37/37
f 30/85/82 29/88/85 79/29/29 82/35/35
f 3/86/83 2/89/86 78/25/25 81/33/33
f 16/87/84 15/90/87 76/23/23 80/31/31
f 29/88/85 28/91/88 75/21/21 79/29/29
f 2/89/86 1/78/75 77/26/26 78/25/25
f 15/90/87 14/92/89 74/19/19 76/23/23
f 28/91/88 27/93/90 73/17/17 75/21/21
f 14/92/89 13/94/91 72/15/15 74/19/19
f 27/93/90 26/95/92 71/13/13 73/17/17
f 13/94/91 12/96/93 70/11/11 72/15/15
f 26/95/92 25/97/94 69/9/9 71/13/13
f 12/96/93 11/98/95 68/5/5 70/11/11
f 25/97/94 24/99/96 66/1/1 69/9/9
f 11/98/95 10/67/65 67/6/6 68/5/5
f 24/99/96 23/69/67 65/2/2 66/1/1
f 162/100/97 152/101/98 151/102/99 161/103/100
f 164/104/101 139/105/102 138/106/103 163/107/104
f 165/108/105 153/109/106 152/101/98 162/100/97
f 166/110/107 140/111/108 139/105/102 164/104/101
f 167/112/109 154/113/110 153/109/106 165/108/105
f 168/114/111 141/115/112 140/111/108 166/110/107
f 169/116/113 155/117/114 154/113/110 167/112/109
f 170/118/115 142/119/116 141/115/112 168/114/111
f 171/120/117 156/121/118 155/117/114 169/116/113
f 172/122/119 143/123/120 142/119/116 170/118/115
f 174/124/121 130/125/122 129/126/123 173/127/124
f 175/128/125 157/129/126 156/121/118 171/120/117
f 176/130/127 144/131/128 143/123/120 172/122/119
f 177/132/129 131/133/130 130/125/122 174/124/121
f 178/134/131 158/135/132 157/129/126 175/128/125
f 179/136/133 145/137/134 144/131/128 176/130/127
f 180/138/135 132/139/136 131/133/130 177/132/129
f 181/140/137 159/141/138 158/135/132 178/134/131
f 182/142/139 146/143/140 145/137/134 179/136/133
f 183/144/141 133/145/142 132/139/136 180/138/135
f 184/146/143 160/147/144 159/141/138 181/140/137
f 185/148/145 147/149/146 146/143/140 182/142/139
f 186/150/147 134/151/148 133/145/142 183/144/141
f 173/127/124 129/126/123 160/147/144 184/146/143
f 187/152/149 148/153/150 147/149/146 185/148/145
f 188/154/151 135/155/152 134/151/148 186/150/147
f 189/156/153 149/157/154 148/153/150 187/152/149
f 190/158/155 136/159/156 135/155/152 188/154/151
f 191/160/157 150/161/158 149/157/154 189/156/153
f 192/162/159 137/163/160 136/159/156 190/158/155
f 161/103/100 151/102/99 150/161/158 191/160/157
f 163/107/104 138/106/103 137/164/160 192/165/159
f 106/166/161 163/107/104 192/165/159 105/167/162
f 119/168/163 161/103/100 191/160/157 118/169/164
f 105/170/162 192/162/159 190/158/155 104/171/165
f 118/169/164 191/160/157 189/156/153 117/172/166
f 104/171/165 190/158/155 188/154/151 103/173/167
f 117/172/166 189/156/153 187/152/149 116/174/168
f 103/173/167 188/154/151 186/150/147 102/175/169
f 116/174/168 187/152/149 185/148/145 115/176/170
f 97/177/171 173/127/124 184/146/143 128/178/172
f 102/175/169 186/150/147 183/144/141 101/179/173
f 115/176/170 185/148/145 182/142/139 114/180/174
f 128/178/172 184/146/143 181/140/137 127/181/175
f 101/179/173 183/144/141 180/138/135 100/182/176
f 114/180/174 182/142/139 179/136/133 113/183/177
f 127/181/175 181/140/137 178/134/131 126/184/178
f 100/182/176 180/138/135 177/132/129 99/185/179
f 113/183/177 179/136/133 176/130/127 112/186/180
f 126/184/178 178/134/131 175/128/125 125/187/181
f 99/185/179 177/132/129 174/124/121 98/188/182
f 112/186/180 176/130/127 172/122/119 111/189/183
f 125/187/181 175/128/125 171/120/117 124/190/184
f 98/188/182 174/124/121 173/127/124 97/177/171
f 111/189/183 172/122/119 170/118/115 110/191/185
f 124/190/184 171/120/117 169/116/113 123/192/186
f 110/191/185 170/118/115 168/114/111 109/193/187
f 123/192/186 169/116/113 167/112/109 122/194/188
f 109/193/187 168/114/111 166/110/107 108/195/189
f 122/194/188 167/112/109 165/108/105 121/196/190
f 108/195/189 166/110/107 164/104/101 107/197/191
f 121/196/190 165/108/105 162/100/97 120/198/192
f 107/197/191 164/104/101 163/107/104 106/166/161
f 120/198/192 162/100/97 161/103/100 119/168/163
f 1/78/75 2/89/86 98/188/182 97/177/171
f 2/89/86 3/86/83 99/185/179 98/188/182
f 3/86/83 4/83/80 100/182/176 99/185/179
f 4/83/80 5/80/77 101/179/173 100/182/176
f 5/80/77 6/76/73 102/175/169 101/179/173
f 6/76/73 7/74/71 103/173/167 102/175/169
f 7/74/71 8/72/69 104/171/165 103/173/167
f 8/72/69 9/71/66 105/170/162 104/171/165
f 9/68/66 10/67/65 106/166/161 105/167/162
f 10/67/65 11/98/95 107/197/191 106/166/161
f 11/98/95 12/96/93 108/195/189 107/197/191
f 12/96/93 13/94/91 109/193/187 108/195/189
f 13/94/91 14/92/89 110/191/185 109/193/187
f 14/92/89 15/90/87 111/189/183 110/191/185
f 15/90/87 16/87/84 112/186/180 111/189/183
f 16/87/84 17/84/81 113/183/177 112/186/180
f 17/84/81 18/81/78 114/180/174 113/183/177
f 18/81/78 19/77/74 115/176/170 114/180/174
f 19/77/74 20/75/72 116/174/168 115/176/170
f 20/75/72 21/73/70 117/172/166 116/174/168
f 21/73/70 22/70/68 118/169/164 117/172/166
f 22/70/68 23/69/67 119/168/163 118/169/164
f 23/69/67 24/99/96 120/198/192 119/168/163
f 24/99/96 25/97/94 121/196/190 120/198/192
f 25/97/94 26/95/92 122/194/188 121/196/190
f 26/95/92 27/93/90 123/192/186 122/194/188
f 27/93/90 28/91/88 124/190/184 123/192/186
f 28/91/88 29/88/85 125/187/181 124/190/184
f 29/88/85 30/85/82 126/184/178 125/187/181
f 30/85/82 31/82/79 127/181/175 126/184/178
f 31/82/79 32/79/76 128/178/172 127/181/175
f 32/79/76 1/78/75 97/177/171 128/178/172
f 34/28/28 33/27/27 129/126/123 130/125/122
f 35/34/34 34/28/28 130/125/122 131/133/130
f 36/40/40 35/34/34 131/133/130 132/139/136
f 37/46/46 36/40/40 132/139/136 133/145/142
f 38/52/52 37/46/46 133/145/142 134/151/148
f 39/56/56 38/52/52 134/151/148 135/155/152
f 40/60/60 39/56/56 135/155/152 136/159/156
f 41/64/64 40/60/60 136/159/156 137/163/160
f 42/7/7 41/66/64 137/164/160 138/106/103
f 43/8/8 42/7/7 138/106/103 139/105/102
f 44/12/12 43/8/8 139/105/102 140/111/108
f 45/16/16 44/12/12 140/111/108 141/115/112
f 46/20/20 45/16/16 141/115/112 142/119/116
f 47/24/24 46/20/20 142/119/116 143/123/120
f 48/32/32 47/24/24 143/123/120 144/131/128
f 49/38/38 48/32/32 144/131/128 145/137/134
f 50/44/44 49/38/38 145/137/134 146/143/140
f 51/50/50 50/44/44 146/143/140 147/149/146
f 52/54/54 51/50/50 147/149/146 148/153/150
f 53/58/58 52/54/54 148/153/150 149/157/154
f 54/62/62 53/58/58 149/157/154 150/161/158
f 55/3/3 54/62/62 150/161/158 151/102/99
f 56/4/4 55/3/3 151/102/99 152/101/98
f 57/10/10 56/4/4 152/101/98 153/109/106
f 58/14/14 57/10/10 153/109/106 154/113/110
f 59/18/18 58/14/14 154/113/110 155/117/114
f 60/22/22 59/18/18 155/117/114 156/121/118
f 61/30/30 60/22/22 156/121/118 157/129/126
f 62/36/36 61/30/30 157/129/126 158/135/132
f 63/42/42 62/36/36 158/135/132 159/141/138
f 64/48/48 63/42/42 159/141/138 160/147/144
f 33/27/27 64/48/48 160/147/144 129/126/123
