# Blender v2.93.5 OBJ File: 'MuzzleFlash.blend'
# www.blender.org
mtllib Muzzle_Planes.mtl
o MuzzlePlanes_Plane
v -1.000000 0.000000 2.000000
v 1.000000 0.000000 2.000000
v -1.000000 0.000000 0.000000
v 1.000000 0.000000 0.000000
v 0.000000 1.000000 2.000000
v 0.000000 -1.000000 2.000000
v 0.000000 1.000000 0.000000
v 0.000000 -1.000000 0.000000
v -1.000000 -0.010000 2.000000
v 1.000000 -0.010000 2.000000
v -1.000000 -0.010000 0.000000
v 1.000000 -0.010000 0.000000
v -0.010000 1.000000 2.000000
v -0.010000 -1.000000 2.000000
v -0.010000 1.000000 0.000000
v -0.010000 -1.000000 0.000000
vt 1.000000 1.000000
vt 0.000000 1.000000
vt 0.000000 0.000000
vt 1.000000 0.000000
vt 1.000000 1.000000
vt 0.000000 1.000000
vt 0.000000 0.000000
vt 1.000000 0.000000
vt 1.000000 1.000000
vt 1.000000 0.000000
vt 0.000000 0.000000
vt 0.000000 1.000000
vt 1.000000 1.000000
vt 1.000000 0.000000
vt 0.000000 0.000000
vt 0.000000 1.000000
vn 0.0000 1.0000 0.0000
vn 1.0000 0.0000 0.0000
vn 0.0000 -1.0000 0.0000
vn -1.0000 0.0000 0.0000
vn 0.0000 0.0000 1.0000
vn 0.0000 0.0000 -1.0000
usemtl None
s off
f 1/1/1 2/2/1 4/3/1 3/4/1
f 5/5/2 6/6/2 8/7/2 7/8/2
f 9/9/3 11/10/3 12/11/3 10/12/3
f 13/13/4 15/14/4 16/15/4 14/16/4
f 1/1/4 3/4/4 11/10/4 9/9/4
f 2/2/5 1/1/5 9/9/5 10/12/5
f 4/3/2 2/2/2 10/12/2 12/11/2
f 3/4/6 4/3/6 12/11/6 11/10/6
f 5/5/1 7/8/1 15/14/1 13/13/1
f 6/6/5 5/5/5 13/13/5 14/16/5
f 8/7/3 6/6/3 14/16/3 16/15/3
f 7/8/6 8/7/6 16/15/6 15/14/6
